<svg width="1200" height="820" viewBox="0 0 1200 820" fill="none" xmlns="http://www.w3.org/2000/svg">
  <rect width="1200" height="820" fill="#FDFAF6"/>
  <rect x="92" y="88" width="1016" height="644" fill="#172D28"/>
  <rect x="128" y="128" width="944" height="88" fill="#00362D"/>
  <circle cx="174" cy="172" r="14" fill="#1C8B7D"/>
  <rect x="226" y="158" width="270" height="20" fill="#E8D4B9"/>
  <rect x="128" y="250" width="270" height="386" fill="#F4F1EA"/>
  <rect x="438" y="250" width="290" height="180" fill="#F4F1EA"/>
  <rect x="768" y="250" width="304" height="180" fill="#F4F1EA"/>
  <rect x="438" y="456" width="634" height="180" fill="#F4F1EA"/>
  <path d="M172 570L224 438L296 482L352 360" stroke="#0055A5" stroke-width="8"/>
  <circle cx="172" cy="570" r="12" fill="#0055A5"/>
  <circle cx="224" cy="438" r="12" fill="#0055A5"/>
  <circle cx="296" cy="482" r="12" fill="#0055A5"/>
  <circle cx="352" cy="360" r="12" fill="#0055A5"/>
  <rect x="480" y="300" width="72" height="82" fill="#00362D"/>
  <rect x="576" y="330" width="72" height="52" fill="#0B5A4B"/>
  <rect x="672" y="280" width="72" height="102" fill="#1C8B7D"/>
  <path d="M814 354L860 302L930 340L1018 286" stroke="#1C8B7D" stroke-width="7"/>
  <circle cx="814" cy="354" r="10" fill="#1C8B7D"/>
  <circle cx="860" cy="302" r="10" fill="#1C8B7D"/>
  <circle cx="930" cy="340" r="10" fill="#1C8B7D"/>
  <circle cx="1018" cy="286" r="10" fill="#1C8B7D"/>
  <rect x="488" y="506" width="190" height="20" fill="#00362D"/>
  <rect x="488" y="548" width="330" height="20" fill="#0055A5"/>
  <rect x="488" y="590" width="248" height="20" fill="#594D46"/>
  <rect x="842" y="506" width="166" height="104" fill="#E8D4B9"/>
  <text x="128" y="704" fill="#FDFAF6" font-family="Arial, sans-serif" font-size="28" font-weight="700">Painéis para gestão territorial</text>
</svg>
